<svg width="32" height="32" viewBox="0 0 32 32" fill="none" xmlns="http://www.w3.org/2000/svg">
  <defs>
    <linearGradient id="bg" x1="0" y1="0" x2="32" y2="32" gradientUnits="userSpaceOnUse">
      <stop offset="0%" stop-color="#1a1211"/>
      <stop offset="100%" stop-color="#0d0b0b"/>
    </linearGradient>
    <linearGradient id="logo" x1="0" y1="0" x2="32" y2="32" gradientUnits="userSpaceOnUse">
      <stop offset="0%" stop-color="#e05580"/>
      <stop offset="55%" stop-color="#b84d7a"/>
      <stop offset="100%" stop-color="#863841"/>
    </linearGradient>
  </defs>

  <!-- Dark rounded background -->
  <rect width="32" height="32" rx="7" fill="url(#bg)"/>

  <!-- Infinity "I" + "N" logo mark, scaled to fit 32×32 -->
  <!-- Original viewBox: 14..162 x 53..127 → width 148, height 74 -->
  <!-- Scale to fit within 26×13 centered in 32×32: scale≈0.176, offset≈(3,9.5) -->
  <g transform="translate(3.4, 9.7) scale(0.1735)">
    <!-- Right "N" shape -->
    <path
      fill="url(#logo)"
      d="M101.141 53H136.632C151.023 53 162.689 64.6662 162.689 79.0573V112.904H148.112V79.0573C148.112 78.7105 148.098 78.3662 148.072 78.0251L112.581 112.898C112.701 112.902 112.821 112.904 112.941 112.904H148.112V126.672H112.941C98.5504 126.672 86.5638 114.891 86.5638 100.5V66.7434H101.141V100.5C101.141 101.15 101.191 101.792 101.289 102.422L137.56 66.7816C137.255 66.7563 136.945 66.7434 136.632 66.7434H101.141V53Z"
    />
    <!-- Left "I" shape -->
    <path
      fill="url(#logo)"
      d="M65.2926 124.136L14 66.7372H34.6355L64.7495 100.436V66.7372H80.1365V118.47C80.1365 126.278 70.4953 129.958 65.2926 124.136Z"
    />
  </g>
</svg>
